<svg width="40" height="36" viewBox="0 0 40 36" fill="none" xmlns="http://www.w3.org/2000/svg">
<path d="M31.6667 16.1831H8.33333C6.49238 16.1831 5 17.5004 5 19.1255V29.4237C5 31.0488 6.49238 32.3661 8.33333 32.3661H31.6667C33.5076 32.3661 35 31.0488 35 29.4237V19.1255C35 17.5004 33.5076 16.1831 31.6667 16.1831Z" stroke="#7490EA" stroke-width="2" stroke-linecap="round" stroke-linejoin="round"/>
<path d="M11.6667 16.183V10.2983C11.6667 8.34738 12.5446 6.47638 14.1074 5.09688C15.6702 3.71738 17.7899 2.94238 20 2.94238C22.2101 2.94238 24.3297 3.71738 25.8925 5.09688C27.4553 6.47638 28.3333 8.34738 28.3333 10.2983V16.183" stroke="#7490EA" stroke-width="2" stroke-linecap="round" stroke-linejoin="round"/>
</svg>
